# xmcd
#
# Track frame offsets: 
#        150
#        20076
#        43103
#        65480
#        85892
#        102247
#        126239
#        145117
#        168416
#        188026
#        204583
#        222583
#
# Disc length: 3298 seconds
#
# Revision: 1
# Processed by: cddbd v1.5.2PL0 Copyright (c) Steve Scherf et al.
# Submitted via: ExactAudioCopyFreeDBPlugin 1.0
#
DISCID=b30ce00c
DTITLE=??? - ??100% Silver?
DYEAR=2017
DGENRE=Pop
TTITLE0=?????
TTITLE1=???
TTITLE2=????
TTITLE3=????
TTITLE4=?????
TTITLE5=???????
TTITLE6=????
TTITLE7=??
TTITLE8=????
TTITLE9=????
TTITLE10=??????
TTITLE11=?????
EXTD=
EXTT0=
EXTT1=
EXTT2=
EXTT3=
EXTT4=
EXTT5=
EXTT6=
EXTT7=
EXTT8=
EXTT9=
EXTT10=
EXTT11=
PLAYORDER=
